<svg width="169" height="32" viewBox="0 0 169 32" fill="none" xmlns="http://www.w3.org/2000/svg">
<path fill-rule="evenodd" clip-rule="evenodd" d="M11.9935 1.08063C11.8505 0.779023 11.5062 0.629642 11.1879 0.730297C4.70337 2.77504 0 8.8335 0 15.9938C0 19.9389 1.42943 23.5482 3.79605 26.3381C4.02617 26.6098 4.46222 26.5494 4.61516 26.2282L12.5608 9.55124C12.6657 9.33073 12.9798 9.33144 13.084 9.55231L14.8189 13.2289C14.9516 13.5098 14.9509 13.8356 14.8168 14.1159L7.79911 28.8153C7.60491 29.2226 7.75358 29.7138 8.14589 29.9353C10.468 31.2481 13.1487 32 16.0062 32C19.22 32 22.2097 31.0497 24.7169 29.4193C25.0178 29.2236 25.1287 28.8367 24.9754 28.512L11.9935 1.08063ZM16.1374 0.515117C16.0222 0.272195 16.2036 -0.00629368 16.4721 0.000108358C16.6905 0.00544339 16.9217 0.0125568 17.0725 0.0225155C25.4154 0.571313 32.0127 7.51219 32.0127 15.9938C32.0127 19.5786 30.8329 22.8874 28.8423 25.5553C28.605 25.8732 28.1121 25.8181 27.9424 25.46L16.1374 0.515117Z" fill="#0073CF"/>
<path fill-rule="evenodd" clip-rule="evenodd" d="M71.943 18.0261C71.943 20.9383 70.0946 22.5417 66.7381 22.5417C63.3817 22.5417 61.5333 20.9383 61.5333 18.0261V7.86108C61.5333 7.38342 61.1459 6.99609 60.6683 6.99609H59.449C58.9714 6.99609 58.584 7.38342 58.584 7.86108V18.0261C58.584 22.7152 61.6325 25.5147 66.7381 25.5147C71.8441 25.5147 74.8922 22.7152 74.8922 18.0261V7.86108C74.8922 7.38342 74.5049 6.99609 74.0272 6.99609H72.808C72.3303 6.99609 71.943 7.38342 71.943 7.86108V18.0261Z" fill="#231F20"/>
<path fill-rule="evenodd" clip-rule="evenodd" d="M130.282 20.5087C129.011 21.8101 127.266 22.542 125.376 22.542C121.616 22.542 118.555 19.6526 118.555 16.1009C118.555 12.2589 121.414 9.46979 125.353 9.46979C127.016 9.46979 128.618 10.0261 129.838 11.0354C129.911 11.0966 129.978 11.1525 130.037 11.2047C130.332 11.4615 130.78 11.4253 131.033 11.1279L132.007 9.98764C132.268 9.68248 132.237 9.22509 131.936 8.95834C131.824 8.85839 131.694 8.74707 131.548 8.62899C129.819 7.22516 127.659 6.47363 125.376 6.47363C119.744 6.47363 115.212 11.0657 115.661 16.5398C116.091 21.783 120.551 25.7399 125.806 25.5048C128.17 25.3988 130.405 24.4687 132.106 22.8934C132.169 22.8344 132.258 22.7462 132.35 22.6505C132.642 22.3525 132.673 21.8869 132.426 21.5515L131.549 20.3561C131.292 20.0047 130.777 19.9755 130.482 20.296C130.403 20.3821 130.332 20.4578 130.282 20.5087Z" fill="#231F20"/>
<path fill-rule="evenodd" clip-rule="evenodd" d="M163.624 14.3434C162.903 14.2025 160.935 14.1054 159.76 14.0471C159.371 14.0279 159.064 14.0126 158.982 14.0044C157.305 13.8316 156.491 13.2419 156.491 12.2026C156.491 10.7469 158.112 9.47001 159.96 9.47001C161.924 9.47001 163.184 9.87583 164.815 11.0972C164.888 11.152 165.021 11.2562 165.15 11.3583C165.345 11.513 165.628 11.4849 165.79 11.2949L167.067 9.79225C167.227 9.60339 167.21 9.32134 167.029 9.15275C166.906 9.03823 166.777 8.92015 166.701 8.85577C164.808 7.23321 162.648 6.47314 159.96 6.47314C155.804 6.47314 153.233 9.4597 153.233 12.2264C153.233 14.9608 155.059 16.5901 158.513 16.9376C159.119 16.9985 159.903 17.017 160.661 17.0344C161.496 17.0536 162.284 17.0721 162.719 17.1453C164.312 17.4135 165.023 18.1473 165.023 19.5237C165.023 21.4411 162.875 22.1265 161.952 22.3321C161.316 22.474 159.104 22.6792 157.603 22.0881C156.694 21.7306 155.86 21.1392 155.067 20.2888C155.011 20.229 154.911 20.1148 154.813 20.0003C154.66 19.8228 154.391 19.8082 154.22 19.9683L152.745 21.3486C152.553 21.5286 152.532 21.8263 152.699 22.0305C152.798 22.1528 152.9 22.2755 152.963 22.3452C154.083 23.5972 155.49 24.5109 157.068 25.0056C158.087 25.325 159.253 25.4264 160.272 25.4264C161.365 25.4264 162.289 25.3097 162.682 25.2194C166.054 24.4462 168.067 22.3168 168.067 19.5237C168.067 16.5005 166.738 14.9512 163.624 14.3434Z" fill="#231F20"/>
<path fill-rule="evenodd" clip-rule="evenodd" d="M87.1797 6.99634H78.792C78.3502 6.99634 78.0532 7.44982 78.23 7.85492L78.8802 9.34482C79.0516 9.73855 79.4407 9.99285 79.8704 9.99285H87.2032C91.0081 9.99285 92.7409 13.196 92.7409 16.1722C92.7409 19.5731 90.3811 22.1375 87.2512 22.1375H85.5372C85.2033 22.1375 84.9333 22.4082 84.9333 22.7418V24.5066C84.9333 24.8403 85.2033 25.1106 85.5372 25.1106H87.2512C89.7711 25.1106 91.4509 24.4113 93.0472 22.6977C94.7316 20.9151 95.7378 18.4048 95.7378 15.9823C95.7378 10.9432 91.9784 6.99634 87.1797 6.99634Z" fill="#231F20"/>
<path fill-rule="evenodd" clip-rule="evenodd" d="M80.4991 12.2128V24.4084C80.4991 24.796 80.8135 25.1105 81.2012 25.1105H82.7224C83.1104 25.1105 83.4248 24.796 83.4248 24.4084L83.4245 12.2128C83.4245 11.8252 83.11 11.5107 82.7224 11.5107H81.2012C80.8135 11.5107 80.4991 11.8252 80.4991 12.2128Z" fill="#231F20"/>
<path fill-rule="evenodd" clip-rule="evenodd" d="M141.323 17.6308H148.731C148.99 17.6308 149.192 17.4057 149.163 17.1481L148.943 15.1365C148.912 14.8505 148.67 14.6343 148.383 14.6343H141.247C140.946 14.6343 140.703 14.8779 140.703 15.1781V17.0109C140.703 17.353 140.98 17.6308 141.323 17.6308Z" fill="#231F20"/>
<path fill-rule="evenodd" clip-rule="evenodd" d="M139.187 21.6531V10.5516C139.187 10.2432 139.437 9.99321 139.745 9.99321H147.847C148.131 9.99321 148.353 9.74637 148.322 9.46361L148.113 7.55296C148.078 7.23606 147.811 6.99634 147.492 6.99634H136.9C136.521 6.99634 136.214 7.30328 136.214 7.68171V24.4223C136.214 24.8022 136.522 25.1106 136.903 25.1106H149.415C149.746 25.1106 150.004 24.8228 149.968 24.4931L149.767 22.6582C149.734 22.3619 149.484 22.1375 149.186 22.1375H139.672C139.404 22.1375 139.187 21.9209 139.187 21.6531Z" fill="#231F20"/>
<path fill-rule="evenodd" clip-rule="evenodd" d="M44.9509 7.39995L53.0456 24.5539C53.2039 24.8896 53.5414 25.1034 53.9124 25.1034H55.807C56.1872 25.1034 56.4383 24.7079 56.2758 24.3636L48.1701 7.18548C48.0186 6.86467 47.6956 6.66016 47.341 6.66016H45.4201C45.0395 6.66016 44.7887 7.05602 44.9509 7.39995Z" fill="#231F20"/>
<path fill-rule="evenodd" clip-rule="evenodd" d="M38.8316 25.1035H40.817C41.1047 25.1035 41.3665 24.9378 41.4892 24.6778L46.2352 14.633C46.3832 14.3193 46.3836 13.9561 46.2352 13.6424L45.1241 11.2872C44.9982 11.0208 44.6194 11.0208 44.4935 11.2872L38.3366 24.3221C38.1651 24.6852 38.4301 25.1035 38.8316 25.1035Z" fill="#231F20"/>
<path fill-rule="evenodd" clip-rule="evenodd" d="M103.369 7.39995L111.464 24.5539C111.622 24.8896 111.959 25.1034 112.33 25.1034H114.225C114.605 25.1034 114.856 24.7079 114.694 24.3636L106.588 7.18548C106.437 6.86467 106.114 6.66016 105.759 6.66016H103.838C103.458 6.66016 103.207 7.05602 103.369 7.39995Z" fill="#231F20"/>
<path fill-rule="evenodd" clip-rule="evenodd" d="M97.2498 25.1035H99.2351C99.5229 25.1035 99.7846 24.9378 99.9074 24.6778L104.653 14.633C104.801 14.3193 104.802 13.9561 104.654 13.6424L103.542 11.2872C103.417 11.0208 103.038 11.0208 102.912 11.2872L96.7547 24.3221C96.5833 24.6852 96.8482 25.1035 97.2498 25.1035Z" fill="#231F20"/>
</svg>
